<svg width="68" height="68" viewBox="0 0 68 68" fill="none" xmlns="http://www.w3.org/2000/svg">
<path d="M62.4722 17.3334H5.5278C2.84724 17.3334 0.666687 15.1528 0.666687 12.4722V5.5278C0.666687 2.84724 2.84724 0.666687 5.5278 0.666687H62.4722C65.1528 0.666687 67.3333 2.84724 67.3333 5.5278V12.4722C67.3333 15.1528 65.1528 17.3334 62.4722 17.3334ZM5.5278 4.83335C5.14446 4.83335 4.83335 5.14446 4.83335 5.5278V12.4722C4.83335 12.8556 5.14446 13.1667 5.5278 13.1667H62.4722C62.8556 13.1667 63.1667 12.8556 63.1667 12.4722V5.5278C63.1667 5.14446 62.8556 4.83335 62.4722 4.83335H5.5278Z" fill="black"/>
<path d="M2.75 28.4445H43.0278V32.6111H2.75V28.4445Z" fill="black"/>
<path d="M2.75 36.7778H43.0278V40.9444H2.75V36.7778Z" fill="black"/>
<path d="M2.75 53.4444H43.0278V57.6111H2.75V53.4444Z" fill="black"/>
<path d="M2.75 61.7778H43.0278V65.9445H2.75V61.7778Z" fill="black"/>
<path d="M59 42.3334C54.4056 42.3334 50.6667 38.5945 50.6667 34.0001C50.6667 29.4056 54.4056 25.6667 59 25.6667C63.5945 25.6667 67.3334 29.4056 67.3334 34.0001C67.3334 38.5945 63.5945 42.3334 59 42.3334ZM59 29.8334C56.7028 29.8334 54.8334 31.7028 54.8334 34.0001C54.8334 36.2973 56.7028 38.1667 59 38.1667C61.2972 38.1667 63.1667 36.2973 63.1667 34.0001C63.1667 31.7028 61.2972 29.8334 59 29.8334Z" fill="black"/>
<path d="M59 67.3334C54.4056 67.3334 50.6667 63.5945 50.6667 59C50.6667 54.4056 54.4056 50.6667 59 50.6667C63.5945 50.6667 67.3334 54.4056 67.3334 59C67.3334 63.5945 63.5945 67.3334 59 67.3334ZM59 54.8334C56.7028 54.8334 54.8334 56.7028 54.8334 59C54.8334 61.2973 56.7028 63.1667 59 63.1667C61.2972 63.1667 63.1667 61.2973 63.1667 59C63.1667 56.7028 61.2972 54.8334 59 54.8334Z" fill="black"/>
</svg>
